<?xml version="1.0" standalone="no"?>
<!DOCTYPE svg PUBLIC "-//W3C//DTD SVG 20010904//EN"
 "http://www.w3.org/TR/2001/REC-SVG-20010904/DTD/svg10.dtd">
<svg version="1.0" xmlns="http://www.w3.org/2000/svg"
 width="512.000000pt" height="512.000000pt" viewBox="0 0 512.000000 512.000000"
 preserveAspectRatio="xMidYMid meet">

<g transform="translate(0.000000,512.000000) scale(0.100000,-0.100000)"
fill="#000000" stroke="none">
<path d="M180 5111 c-69 -21 -121 -65 -156 -131 -18 -33 -19 -78 -19 -995 0
-1068 -5 -990 67 -1064 69 -70 9 -65 883 -71 l790 -5 -3 -35 c-4 -35 -22 -80
-64 -155 -37 -65 -31 -132 21 -236 38 -76 43 -96 50 -187 10 -125 24 -150 133
-221 65 -43 86 -64 129 -129 71 -108 95 -123 222 -133 91 -8 111 -14 187 -51
103 -51 170 -57 235 -20 77 43 122 61 156 64 l34 3 0 -155 0 -155 -767 -5
c-755 -5 -767 -5 -794 -26 -15 -11 -36 -31 -46 -45 -32 -44 -458 -1144 -458
-1183 0 -40 27 -102 56 -127 59 -52 -52 -49 1747 -49 1660 0 1663 0 1685 20
30 28 30 82 0 110 -21 20 -32 20 -645 20 l-623 0 0 808 0 807 29 19 c16 11 51
55 80 98 43 66 63 86 129 129 43 29 87 64 98 80 l19 29 782 0 781 0 26 -31 26
-31 0 -914 c0 -994 2 -956 -55 -982 -17 -8 -91 -12 -219 -12 -180 0 -194 -1
-214 -20 -30 -28 -30 -82 0 -110 22 -20 31 -21 243 -18 203 3 223 5 260 25 47
25 85 64 111 113 18 33 19 78 19 995 0 1068 5 990 -67 1064 -69 70 -9 65 -883
71 l-790 5 3 34 c3 34 21 79 64 156 37 65 31 132 -21 236 -38 76 -43 96 -50
187 -10 125 -24 150 -133 221 -65 43 -86 64 -129 129 -71 108 -95 123 -222
133 -89 8 -112 14 -182 48 -131 64 -179 64 -291 -4 -42 -26 -69 -35 -101 -35
l-44 0 3 153 3 152 767 5 c755 5 767 5 794 26 15 11 36 31 46 45 32 44 458
1144 458 1184 0 63 -40 124 -102 156 -36 18 -88 19 -1721 19 l-1684 0 -27 -21
c-34 -27 -35 -71 -1 -104 l24 -25 646 0 645 0 0 -807 0 -808 -29 -19 c-16 -11
-51 -55 -80 -98 -43 -66 -63 -86 -129 -129 -43 -29 -87 -64 -98 -80 l-19 -29
-782 0 -781 0 -26 31 -26 31 2 929 3 928 23 23 c21 22 31 23 196 26 157 3 176
5 195 23 29 27 28 82 -1 109 -20 19 -34 20 -192 19 -94 0 -182 -4 -196 -8z
m4006 -156 c3 -8 -63 -189 -148 -402 l-154 -388 -807 -3 -807 -2 0 405 0 405
955 0 c827 0 956 -2 961 -15z m-372 -967 c-4 -13 -17 -50 -29 -83 l-23 -60
-746 -3 -746 -2 0 78 c0 43 3 82 7 85 3 4 352 7 775 7 l769 0 -7 -22z m-1190
-697 c66 -38 142 -59 236 -65 83 -6 75 0 155 -113 25 -36 67 -77 100 -100 107
-72 105 -70 110 -153 7 -99 19 -141 62 -227 l37 -73 -37 -72 c-43 -87 -55
-129 -62 -228 -5 -83 -3 -81 -110 -153 -33 -23 -75 -64 -100 -100 -80 -113
-72 -107 -155 -113 -99 -6 -141 -18 -227 -61 l-73 -37 -72 37 c-87 43 -129 55
-228 61 -83 6 -75 0 -155 113 -25 36 -67 77 -100 100 -107 72 -105 70 -110
153 -7 99 -19 141 -63 228 l-37 73 24 42 c64 116 65 119 71 226 7 116 0 106
115 184 33 23 75 64 100 100 80 113 71 107 158 113 89 6 184 33 242 69 51 31
57 31 119 -4z m224 -2093 l-3 -83 -772 -3 c-425 -1 -773 0 -773 3 0 2 10 30
21 62 12 32 26 68 30 81 l9 22 745 0 746 0 -3 -82z m2 -643 l0 -405 -955 0
c-826 0 -956 2 -961 15 -4 11 189 517 291 763 l14 32 805 0 806 0 0 -405z"/>
<path d="M3256 4856 c-70 -26 -126 -97 -126 -161 0 -61 91 -90 127 -40 47 67
51 70 70 59 39 -24 28 -56 -67 -185 -112 -154 -125 -180 -108 -217 21 -43 51
-52 189 -52 113 0 129 2 153 21 19 15 26 30 26 55 0 52 -28 74 -95 74 -30 0
-55 3 -55 6 0 3 20 34 45 68 88 124 107 209 63 288 -42 73 -144 112 -222 84z"/>
<path d="M2704 4839 c-17 -19 -19 -42 -22 -262 -3 -258 1 -286 44 -306 35 -16
48 -14 78 10 24 19 26 26 26 100 l0 79 49 0 c78 0 148 42 184 110 25 47 28 63
23 109 -6 67 -44 126 -101 158 -35 20 -55 23 -151 23 -100 0 -113 -2 -130 -21z
m220 -145 c36 -36 5 -84 -56 -84 l-38 0 0 50 0 50 39 0 c23 0 46 -7 55 -16z"/>
<path d="M2061 2854 c-12 -15 -21 -32 -21 -38 0 -7 45 -140 99 -296 70 -199
106 -290 121 -302 32 -26 86 -23 113 6 25 27 197 546 197 595 0 54 -74 81
-118 44 -13 -11 -42 -85 -78 -195 -32 -98 -61 -174 -65 -170 -4 4 -33 83 -65
177 -32 93 -66 177 -76 187 -28 28 -82 24 -107 -8z"/>
<path d="M2719 2857 c-110 -58 -142 -197 -67 -283 36 -41 61 -55 160 -90 69
-25 118 -56 118 -76 0 -5 -11 -20 -25 -33 -42 -43 -120 -32 -205 31 -56 41
-120 10 -120 -58 0 -64 116 -138 229 -146 95 -6 147 11 202 67 128 127 63 290
-140 351 -78 23 -111 44 -111 70 0 46 87 53 166 13 44 -22 59 -25 81 -17 36
12 58 52 49 88 -7 30 -78 80 -136 96 -64 18 -153 12 -201 -13z"/>
<path d="M1640 840 c-19 -19 -20 -33 -20 -279 l0 -260 26 -20 c70 -55 124 -5
124 114 l0 65 48 0 c54 0 117 26 149 61 69 75 69 203 0 278 -42 45 -93 61
-204 61 -90 0 -106 -3 -123 -20z m218 -142 c7 -7 12 -24 12 -38 0 -36 -17 -50
-62 -50 l-38 0 0 50 0 50 38 0 c21 0 43 -5 50 -12z"/>
<path d="M2097 842 c-22 -25 -22 -85 1 -104 9 -9 32 -19 50 -23 l32 -7 0 -209
c0 -196 1 -210 20 -229 25 -25 71 -26 101 -1 l24 19 0 265 c0 323 7 307 -125
307 -71 0 -90 -3 -103 -18z"/>
<path d="M999 4757 c-88 -30 -171 -94 -220 -170 -56 -86 -72 -150 -67 -261 3
-76 9 -102 35 -158 82 -175 270 -276 456 -247 143 23 265 114 327 244 59 122
52 284 -15 400 -105 178 -321 259 -516 192z m266 -155 c48 -24 106 -83 131
-132 9 -20 19 -67 22 -108 4 -66 2 -78 -27 -137 -52 -105 -136 -158 -251 -158
-159 0 -280 118 -280 273 0 78 12 120 52 175 32 45 79 80 135 101 53 20 167
13 218 -14z"/>
<path d="M805 3811 c-155 -89 -268 -255 -300 -440 -16 -89 -5 -133 38 -165 28
-21 35 -21 598 -21 l569 0 31 31 c20 21 32 44 36 71 7 52 -27 185 -68 269 -60
122 -238 284 -312 284 -16 0 -62 -12 -101 -26 -55 -20 -90 -25 -156 -25 -66 0
-101 5 -156 25 -91 33 -117 32 -179 -3z m132 -141 c113 -43 292 -43 404 -1
l49 19 38 -27 c90 -66 177 -199 189 -291 l6 -40 -488 0 -487 0 7 36 c18 98 95
220 179 284 28 22 51 40 51 40 0 0 23 -9 52 -20z"/>
<path d="M3901 1930 c-135 -29 -248 -119 -309 -248 -35 -73 -37 -82 -36 -177
0 -116 20 -179 82 -260 196 -258 586 -223 732 65 139 275 -49 603 -357 624
-38 3 -88 1 -112 -4z m204 -171 c50 -24 120 -95 140 -143 56 -134 3 -288 -125
-360 -49 -28 -64 -31 -135 -31 -85 0 -129 16 -192 69 -45 38 -84 119 -90 185
-20 216 206 372 402 280z"/>
<path d="M3659 973 c-77 -39 -195 -160 -242 -250 -39 -76 -77 -203 -77 -260 0
-19 7 -47 15 -63 32 -63 4 -60 628 -60 l569 0 34 34 c33 33 38 48 35 111 -6
116 -74 266 -167 365 -72 76 -152 134 -199 144 -22 5 -52 -1 -100 -19 -120
-45 -250 -43 -358 5 -56 26 -73 25 -138 -7z m186 -165 c99 -26 227 -21 323 11
63 22 64 22 95 2 42 -26 108 -96 140 -148 24 -38 67 -149 67 -173 0 -7 -160
-10 -489 -10 l-489 0 13 48 c7 26 18 60 24 76 38 95 172 234 215 221 12 -3 57
-15 101 -27z"/>
</g>
</svg>
